<?xml version="1.0" encoding="UTF-8" standalone="no"?>
<!-- Created with Inkscape (http://www.inkscape.org/) -->

<svg
   version="1.1"
   id="svg18"
   width="311.96661"
   height="99.322693"
   viewBox="0 0 311.96661 99.322693"
   sodipodi:docname="TIP Logo &amp; Kleurstelling - CMYK DEF.ai"
   xmlns:inkscape="http://www.inkscape.org/namespaces/inkscape"
   xmlns:sodipodi="http://sodipodi.sourceforge.net/DTD/sodipodi-0.dtd"
   xmlns="http://www.w3.org/2000/svg"
   xmlns:svg="http://www.w3.org/2000/svg">
  <defs
     id="defs22">
    <linearGradient
       x1="0"
       y1="0"
       x2="1"
       y2="0"
       gradientUnits="userSpaceOnUse"
       gradientTransform="matrix(74.637382,0,0,-74.637382,168.42296,343.85037)"
       spreadMethod="pad"
       id="linearGradient94">
      <stop
         style="stop-opacity:1;stop-color:#0bb0e6"
         offset="0"
         id="stop90" />
      <stop
         style="stop-opacity:1;stop-color:#91c88e"
         offset="1"
         id="stop92" />
    </linearGradient>
    <clipPath
       clipPathUnits="userSpaceOnUse"
       id="clipPath104">
      <path
         d="M 0,1080 H 1920 V 0 H 0 Z"
         id="path102" />
    </clipPath>
  </defs>
  <sodipodi:namedview
     id="namedview20"
     pagecolor="#ffffff"
     bordercolor="#000000"
     borderopacity="0.25"
     inkscape:showpageshadow="2"
     inkscape:pageopacity="0.0"
     inkscape:pagecheckerboard="0"
     inkscape:deskcolor="#d1d1d1"
     showgrid="false" />
  <g
     id="g26"
     inkscape:groupmode="layer"
     inkscape:label="Page 1"
     transform="matrix(1.3333333,0,0,-1.3333333,-224.56366,508.12799)">
    <g
       id="g78">
      <g
         id="g80">
        <g
           id="g86">
          <g
             id="g88">
            <path
               d="m 199.259,378.411 -0.597,-0.596 0.056,0.133 c 0,0 -2.523,-2.884 -5.141,-4.08 v 0 c -2.198,-1.005 -7.077,-0.956 -7.077,-0.956 v 0 l 0.063,-0.019 h -0.975 c -4.87,0 -8.817,-3.947 -8.817,-8.816 v 0 -1.319 l -0.114,0.277 c 0,0 0.255,-3.824 -0.749,-6.52 v 0 c -0.845,-2.266 -4.33,-5.681 -4.33,-5.681 v 0 l 0.227,0.124 -0.8,-0.8 c -3.443,-3.444 -3.443,-9.026 0,-12.469 v 0 l 0.943,-0.943 -0.345,0.145 c 0,0 2.885,-2.525 4.081,-5.141 v 0 c 1.005,-2.2 0.955,-7.079 0.955,-7.079 v 0 l 0.132,0.446 v -1.347 c 0,-4.87 3.947,-8.818 8.817,-8.818 v 0 h 1.229 l -0.301,-0.122 c 0,0 3.824,0.254 6.52,-0.751 v 0 c 2.267,-0.844 5.681,-4.329 5.681,-4.329 v 0 l -0.268,0.495 1.058,-1.058 c 3.443,-3.444 9.026,-3.444 12.469,0 v 0 l 0.754,0.754 -0.069,-0.166 c 0,0 2.525,2.884 5.141,4.08 v 0 c 2.199,1.006 7.077,0.956 7.077,0.956 v 0 l -0.476,0.141 h 1.492 c 4.869,0 8.818,3.948 8.818,8.818 v 0 0.941 l 0.009,-0.022 c 0,0 -0.005,0.063 -0.009,0.179 v 0 1.864 c 0.051,1.323 0.229,3.055 0.758,4.477 v 0 c 0.845,2.265 4.33,5.68 4.33,5.68 v 0 l -0.268,-0.145 0.945,0.945 c 3.444,3.443 3.444,9.025 0,12.469 v 0 l -2.523,2.522 c -0.815,0.925 -1.712,2.098 -2.259,3.294 v 0 c -1.006,2.199 -0.955,7.078 -0.955,7.078 v 0 l -0.028,-0.096 v 0.77 c 0,5.063 -4.105,9.167 -9.169,9.167 v 0 h -2.956 c -1.29,0.064 -2.906,0.252 -4.245,0.751 v 0 c -1.971,0.734 -4.809,3.465 -5.515,4.163 v 0 l -0.603,0.604 c -1.791,1.79 -4.137,2.685 -6.483,2.685 v 0 c -2.347,0 -4.693,-0.895 -6.483,-2.685 m -5.425,-7.643 c 0.205,0.09 0.41,0.178 0.616,0.264 v 0 c 0.331,0.138 0.665,0.268 1.003,0.395 v 0 c 0.224,0.084 0.448,0.168 0.673,0.246 v 0 c 0.336,0.116 0.676,0.222 1.018,0.327 v 0 c 2.32,0.708 4.711,1.122 7.112,1.243 v 0 c -1.198,-0.27 -2.338,-0.864 -3.271,-1.798 v 0 l -0.839,-0.839 0.05,0.119 c 0,0 -1.99,-2.272 -4.052,-3.215 v 0 c -1.733,-0.792 -5.578,-0.753 -5.578,-0.753 v 0 l 0.033,-0.01 h -1.234 c -1.055,0 -2.048,-0.258 -2.927,-0.707 v 0 c 2.201,1.922 4.689,3.525 7.396,4.728 m 21.828,-3.435 c -1.295,0.483 -3.06,2.054 -3.936,2.885 v 0 l -1.228,1.227 c -0.927,0.928 -2.059,1.521 -3.25,1.794 v 0 c 3.059,-0.156 6.101,-0.782 9.001,-1.892 v 0 c 0.246,-0.094 0.49,-0.192 0.732,-0.293 v 0 c 0.241,-0.099 0.481,-0.202 0.721,-0.309 v 0 c 2.836,-1.266 5.429,-2.973 7.702,-5.026 v 0 c -1.034,0.648 -2.253,1.028 -3.562,1.028 v 0 h -2.921 c -1.001,0.054 -2.233,0.204 -3.259,0.586 m -16.724,-45.525 c -0.218,0.067 -0.435,0.135 -0.65,0.208 v 0 c -0.244,0.083 -0.486,0.171 -0.727,0.263 v 0 c -0.226,0.086 -0.451,0.173 -0.673,0.266 v 0 c -0.224,0.092 -0.445,0.189 -0.665,0.289 v 0 c -0.235,0.106 -0.468,0.214 -0.699,0.327 v 0 c -0.026,0.014 -0.052,0.026 -0.078,0.039 v 0 c -4.503,2.248 -8.17,5.913 -10.419,10.415 v 0 c -0.016,0.03 -0.03,0.06 -0.046,0.09 v 0 c -0.112,0.229 -0.22,0.461 -0.325,0.695 v 0 c -0.101,0.221 -0.198,0.444 -0.291,0.668 v 0 c -0.092,0.222 -0.179,0.445 -0.264,0.67 v 0 c -0.092,0.242 -0.181,0.486 -0.263,0.731 v 0 c -0.073,0.213 -0.142,0.429 -0.208,0.646 v 0 c -1.359,4.429 -1.359,9.182 0,13.61 v 0 c 0.066,0.217 0.135,0.434 0.208,0.649 v 0 c 0.082,0.243 0.171,0.486 0.262,0.729 v 0 c 0.086,0.224 0.173,0.449 0.265,0.671 v 0 c 0.093,0.223 0.19,0.445 0.29,0.667 v 0 c 0.106,0.234 0.214,0.466 0.327,0.696 v 0 c 0.101,0.205 0.206,0.407 0.314,0.61 v 0 c 2.421,4.563 6.319,8.217 11.062,10.325 v 0 c 0.162,0.071 0.325,0.141 0.489,0.209 v 0 c 0.259,0.108 0.521,0.211 0.785,0.309 v 0 c 0.178,0.066 0.356,0.134 0.535,0.195 v 0 c 0.263,0.092 0.53,0.175 0.797,0.257 v 0 c 4.917,1.502 10.231,1.333 15.057,-0.513 v 0 c 0.193,-0.075 0.385,-0.152 0.577,-0.232 v 0 c 0.19,-0.078 0.379,-0.159 0.567,-0.243 v 0 c 4.718,-2.107 8.597,-5.745 11.012,-10.286 v 0 c 0.131,-0.246 0.26,-0.492 0.381,-0.742 v 0 c 0.083,-0.17 0.162,-0.344 0.241,-0.517 v 0 c 0.116,-0.256 0.23,-0.515 0.337,-0.775 v 0 c 0.067,-0.163 0.133,-0.327 0.197,-0.493 v 0 c 1.864,-4.844 2.036,-10.184 0.522,-15.123 v 0 c -0.068,-0.218 -0.136,-0.436 -0.21,-0.653 v 0 c -0.083,-0.242 -0.17,-0.483 -0.261,-0.724 v 0 c -0.085,-0.226 -0.174,-0.452 -0.266,-0.676 v 0 c -0.093,-0.222 -0.189,-0.443 -0.288,-0.663 v 0 c -0.107,-0.235 -0.215,-0.469 -0.33,-0.699 v 0 c -0.1,-0.204 -0.205,-0.406 -0.311,-0.607 v 0 c -2.171,-4.092 -5.531,-7.452 -9.622,-9.623 v 0 c -0.202,-0.106 -0.404,-0.211 -0.608,-0.312 v 0 c -0.231,-0.113 -0.464,-0.222 -0.699,-0.327 v 0 c -0.219,-0.1 -0.441,-0.197 -0.663,-0.289 v 0 c -0.223,-0.093 -0.449,-0.181 -0.676,-0.267 v 0 c -0.24,-0.091 -0.482,-0.178 -0.724,-0.261 v 0 c -0.217,-0.074 -0.434,-0.142 -0.653,-0.209 v 0 c -2.214,-0.679 -4.509,-1.019 -6.803,-1.019 v 0 c -2.295,0 -4.589,0.34 -6.803,1.019 m 29.63,38.213 c 0,1.316 -0.384,2.541 -1.039,3.579 v 0 c 1.611,-1.784 3.007,-3.765 4.146,-5.905 v 0 c 0.167,-0.314 0.332,-0.63 0.487,-0.949 v 0 c 0.105,-0.215 0.204,-0.432 0.303,-0.65 v 0 c 0.149,-0.328 0.293,-0.657 0.43,-0.989 v 0 c 0.085,-0.206 0.168,-0.413 0.248,-0.621 v 0 c 1.064,-2.763 1.69,-5.654 1.887,-8.569 v 0 c -0.305,0.938 -0.823,1.82 -1.567,2.565 v 0 l -2.447,2.446 c -0.614,0.709 -1.27,1.588 -1.678,2.48 v 0 c -0.793,1.732 -0.753,5.578 -0.753,5.578 v 0 l -0.017,-0.056 z m -50.891,-7.463 c 0.085,0.276 0.172,0.553 0.266,0.826 v 0 c 0.104,0.309 0.216,0.615 0.331,0.921 v 0 c 0.109,0.287 0.22,0.573 0.337,0.856 v 0 c 0.117,0.282 0.241,0.563 0.368,0.843 v 0 c 0.134,0.298 0.271,0.594 0.415,0.886 v 0 c 0.128,0.259 0.261,0.516 0.397,0.773 v 0 c 1.061,2 2.35,3.857 3.825,5.549 v 0 c -0.444,-0.877 -0.701,-1.865 -0.701,-2.915 v 0 -1.583 l -0.105,0.258 c 0,0 0.2,-3.013 -0.592,-5.139 v 0 c -0.666,-1.785 -3.411,-4.476 -3.411,-4.476 v 0 l 0.197,0.107 -0.983,-0.982 c -0.741,-0.742 -1.257,-1.619 -1.563,-2.552 v 0 c 0.153,2.239 0.555,4.463 1.219,6.628 m 55.786,-13.199 c 0.74,0.741 1.257,1.619 1.562,2.551 v 0 c -0.153,-2.237 -0.556,-4.46 -1.219,-6.623 v 0 c -0.085,-0.276 -0.172,-0.551 -0.265,-0.824 v 0 c -0.104,-0.309 -0.217,-0.616 -0.333,-0.923 v 0 c -0.108,-0.286 -0.219,-0.571 -0.336,-0.853 v 0 c -0.118,-0.285 -0.241,-0.566 -0.368,-0.847 v 0 c -0.134,-0.297 -0.272,-0.591 -0.415,-0.883 v 0 c -0.127,-0.26 -0.262,-0.518 -0.398,-0.775 v 0 c -1.06,-1.996 -2.346,-3.852 -3.818,-5.54 v 0 c 0.441,0.873 0.695,1.856 0.695,2.902 v 0 1.212 l 10e-4,-0.005 c 0,0 0,0.013 -10e-4,0.028 v 0 1.733 c 0.048,1.021 0.196,2.312 0.593,3.378 v 0 c 0.666,1.786 3.412,4.477 3.412,4.477 v 0 l -0.226,-0.123 z m -53.672,-9.174 c -0.136,0.255 -0.269,0.512 -0.396,0.771 v 0 c -0.145,0.292 -0.282,0.588 -0.416,0.886 v 0 c -0.127,0.28 -0.251,0.56 -0.368,0.844 v 0 c -0.117,0.283 -0.228,0.568 -0.336,0.855 v 0 c -0.116,0.306 -0.228,0.613 -0.332,0.921 v 0 c -0.094,0.273 -0.18,0.55 -0.266,0.826 v 0 c -0.663,2.162 -1.066,4.385 -1.219,6.622 v 0 c 0.306,-0.932 0.822,-1.81 1.563,-2.551 v 0 l 1.127,-1.126 -0.322,0.135 c 0,0 2.273,-1.989 3.215,-4.052 v 0 c 0.793,-1.733 0.753,-5.578 0.753,-5.578 v 0 l 0.121,0.405 v -1.599 c 0,-1.045 0.254,-2.029 0.696,-2.902 v 0 c -1.474,1.689 -2.761,3.545 -3.82,5.543 m 40.594,-9.091 h 1.733 c 1.045,0 2.029,0.255 2.902,0.696 v 0 c -1.688,-1.472 -3.543,-2.758 -5.539,-3.817 v 0 c -0.256,-0.135 -0.513,-0.269 -0.772,-0.396 v 0 c -0.292,-0.145 -0.589,-0.283 -0.887,-0.417 v 0 c -0.279,-0.127 -0.56,-0.25 -0.843,-0.366 v 0 c -0.282,-0.118 -0.569,-0.23 -0.857,-0.339 v 0 c -0.305,-0.115 -0.61,-0.227 -0.918,-0.331 v 0 c -0.275,-0.094 -0.551,-0.181 -0.83,-0.266 v 0 c -2.159,-0.663 -4.38,-1.065 -6.614,-1.218 v 0 c 0.929,0.306 1.804,0.822 2.542,1.56 v 0 l 0.941,0.941 -0.06,-0.143 c 0,0 1.99,2.273 4.052,3.216 v 0 c 1.733,0.792 5.578,0.753 5.578,0.753 v 0 z m -23.275,-5.236 c -0.279,0.085 -0.556,0.173 -0.832,0.267 v 0 c -0.307,0.103 -0.612,0.215 -0.916,0.33 v 0 c -0.288,0.109 -0.576,0.221 -0.859,0.339 v 0 c -0.283,0.117 -0.563,0.239 -0.842,0.365 v 0 c -0.298,0.135 -0.594,0.273 -0.886,0.418 v 0 c -0.26,0.127 -0.516,0.26 -0.772,0.396 v 0 c -1.996,1.058 -3.852,2.344 -5.54,3.817 v 0 c 0.873,-0.441 1.857,-0.696 2.902,-0.696 v 0 h 1.489 l -0.275,-0.113 c 0,0 3.014,0.201 5.139,-0.591 v 0 c 1.785,-0.665 4.476,-3.412 4.476,-3.412 v 0 l -0.245,0.454 1.232,-1.232 c 0.738,-0.738 1.613,-1.254 2.542,-1.56 v 0 c -2.234,0.153 -4.454,0.555 -6.613,1.218"
               style="fill:url(#linearGradient94);stroke:none"
               id="path96" />
          </g>
        </g>
      </g>
    </g>
    <g
       id="g98">
      <g
         id="g100"
         clip-path="url(#clipPath104)">
        <g
           id="g106"
           transform="translate(265.7477,353.275)">
          <path
             d="M 0,0 H -7.719 V 9.229 H 18.29 V 0 H 10.627 V -28.078 H 0 Z"
             style="fill:#373382;fill-opacity:1;fill-rule:nonzero;stroke:none"
             id="path108" />
        </g>
        <path
           d="m 288.616,362.504 h 10.572 v -37.308 h -10.572 z"
           style="fill:#373382;fill-opacity:1;fill-rule:nonzero;stroke:none"
           id="path110" />
        <g
           id="g112"
           transform="translate(319.3934,353.499)">
          <path
             d="M 0,0 H -4.307 V -7.104 H 0 c 1.958,0 3.356,1.343 3.356,3.58 C 3.356,-1.343 1.958,0 0,0 M -14.878,9.005 H 1.286 c 8.558,0 12.809,-5.873 12.809,-12.641 0,-6.712 -4.251,-12.473 -12.809,-12.473 h -5.593 v -12.193 h -10.571 z"
             style="fill:#373382;fill-opacity:1;fill-rule:nonzero;stroke:none"
             id="path114" />
        </g>
        <g
           id="g116"
           transform="translate(345.5483,358.2797)">
          <path
             d="M 0,0 H -1.781 V 0.789 H 2.684 V 0 H 0.891 V -6.73 H 0 Z"
             style="fill:#373382;fill-opacity:1;fill-rule:nonzero;stroke:none"
             id="path118" />
        </g>
        <g
           id="g120"
           transform="translate(349.7109,356.9948)">
          <path
             d="m 0,0 h 0.801 v -0.868 c 0.349,0.576 0.878,0.981 1.544,0.981 v -0.834 c -0.09,0.022 -0.181,0.033 -0.271,0.033 -0.496,0 -1.048,-0.439 -1.273,-0.89 V -5.445 H 0 Z"
             style="fill:#373382;fill-opacity:1;fill-rule:nonzero;stroke:none"
             id="path122" />
        </g>
        <g
           id="g124"
           transform="translate(357.0623,352.3055)">
          <path
             d="m 0,0 c -0.326,-0.474 -0.902,-0.891 -1.578,-0.891 -0.925,0 -1.364,0.463 -1.364,1.454 v 4.126 h 0.8 V 0.8 c 0,-0.721 0.338,-0.969 0.868,-0.969 0.541,0 1.038,0.394 1.274,0.845 V 4.689 H 0.812 V -0.755 H 0 Z"
             style="fill:#373382;fill-opacity:1;fill-rule:nonzero;stroke:none"
             id="path126" />
        </g>
        <g
           id="g128"
           transform="translate(360.4583,352.756)">
          <path
             d="m 0,0 c 0.315,-0.383 0.834,-0.688 1.42,-0.688 0.631,0 1.049,0.339 1.049,0.857 0,0.586 -0.542,0.823 -1.139,1.072 -0.744,0.292 -1.578,0.619 -1.578,1.668 0,0.811 0.653,1.466 1.736,1.466 0.722,0 1.274,-0.282 1.657,-0.7 L 2.762,3.123 C 2.492,3.483 2.029,3.72 1.499,3.72 0.902,3.72 0.53,3.393 0.53,2.954 0.53,2.435 1.037,2.21 1.612,1.973 2.367,1.669 3.246,1.331 3.246,0.215 c 0,-0.903 -0.698,-1.556 -1.815,-1.556 -0.766,0 -1.386,0.247 -1.837,0.766 z"
             style="fill:#373382;fill-opacity:1;fill-rule:nonzero;stroke:none"
             id="path130" />
        </g>
        <g
           id="g132"
           transform="translate(366.1422,352.6437)">
          <path
             d="m 0,0 v 3.641 h -0.722 v 0.71 H 0 V 5.84 H 0.811 V 4.351 H 1.735 V 3.641 H 0.811 V 0.146 c 0,-0.416 0.125,-0.653 0.44,-0.653 0.203,0 0.372,0.09 0.473,0.214 L 1.972,-0.902 C 1.781,-1.094 1.51,-1.229 1.093,-1.229 0.349,-1.229 0,-0.812 0,0"
             style="fill:#373382;fill-opacity:1;fill-rule:nonzero;stroke:none"
             id="path134" />
        </g>
        <g
           id="g136"
           transform="translate(370.6416,354.605)">
          <path
             d="M 0,0 H 2.728 C 2.717,0.834 2.356,1.849 1.364,1.849 0.405,1.849 0.022,0.801 0,0 m 1.375,2.526 c 1.432,0 2.153,-1.286 2.153,-2.875 V -0.597 H 0 c 0.033,-1.094 0.597,-1.917 1.566,-1.917 0.474,0 0.959,0.237 1.297,0.665 L 3.291,-2.322 C 2.852,-2.864 2.232,-3.19 1.499,-3.19 c -1.455,0 -2.333,1.195 -2.333,2.863 0,1.579 0.834,2.853 2.209,2.853"
             style="fill:#373382;fill-opacity:1;fill-rule:nonzero;stroke:none"
             id="path138" />
        </g>
        <g
           id="g140"
           transform="translate(379.5947,355.5185)">
          <path
             d="m 0,0 c -0.203,0.473 -0.71,0.89 -1.229,0.89 -0.89,0 -1.308,-0.958 -1.308,-2.142 0,-1.172 0.418,-2.13 1.308,-2.13 0.519,0 1.026,0.406 1.229,0.879 z m 0,-3.191 c -0.316,-0.552 -0.857,-0.913 -1.432,-0.913 -1.217,0 -1.95,1.139 -1.95,2.852 0,1.691 0.721,2.864 1.95,2.864 0.553,0 1.105,-0.316 1.432,-0.924 v 2.863 h 0.812 v -7.52 H 0 Z"
             style="fill:#373382;fill-opacity:1;fill-rule:nonzero;stroke:none"
             id="path142" />
        </g>
        <path
           d="m 344.636,347.55 h 0.902 v -7.52 h -0.902 z"
           style="fill:#373382;fill-opacity:1;fill-rule:nonzero;stroke:none"
           id="path144" />
        <g
           id="g146"
           transform="translate(351.1427,343.9082)">
          <path
             d="m 0,0 c 0,0.721 -0.327,0.981 -0.868,0.981 -0.53,0 -1.026,-0.418 -1.274,-0.869 v -3.99 h -0.801 v 5.445 h 0.801 V 0.789 c 0.315,0.474 0.924,0.913 1.578,0.913 0.924,0 1.376,-0.496 1.376,-1.477 V -3.878 H 0 Z"
             style="fill:#373382;fill-opacity:1;fill-rule:nonzero;stroke:none"
             id="path148" />
        </g>
        <g
           id="g150"
           transform="translate(354.7633,344.7649)">
          <path
             d="M 0,0 H -0.721 V 0.71 H 0 v 0.665 c 0,0.959 0.541,1.522 1.331,1.522 0.259,0 0.507,-0.056 0.698,-0.158 L 1.838,2.108 C 1.725,2.164 1.612,2.198 1.477,2.198 1.049,2.198 0.812,1.905 0.812,1.375 V 0.71 H 1.737 V 0 H 0.812 V -4.735 H 0 Z"
             style="fill:#373382;fill-opacity:1;fill-rule:nonzero;stroke:none"
             id="path152" />
        </g>
        <g
           id="g154"
           transform="translate(361.8783,342.7584)">
          <path
             d="m 0,0 c 0,1.093 -0.417,2.13 -1.375,2.13 -0.936,0 -1.364,-1.037 -1.364,-2.13 0,-1.105 0.428,-2.142 1.364,-2.142 C -0.417,-2.142 0,-1.105 0,0 m -3.585,0 c 0,1.533 0.767,2.852 2.21,2.852 1.465,0 2.221,-1.319 2.221,-2.852 0,-1.534 -0.756,-2.863 -2.221,-2.863 -1.443,0 -2.21,1.329 -2.21,2.863"
             style="fill:#373382;fill-opacity:1;fill-rule:nonzero;stroke:none"
             id="path156" />
        </g>
        <g
           id="g158"
           transform="translate(365.0713,345.4753)">
          <path
             d="m 0,0 h 0.8 v -0.868 c 0.35,0.575 0.879,0.981 1.545,0.981 v -0.834 c -0.09,0.022 -0.181,0.033 -0.271,0.033 -0.496,0 -1.048,-0.44 -1.274,-0.89 V -5.445 H 0 Z"
             style="fill:#373382;fill-opacity:1;fill-rule:nonzero;stroke:none"
             id="path160" />
        </g>
        <g
           id="g162"
           transform="translate(374.9822,343.9761)">
          <path
             d="m 0,0 c 0,0.586 -0.237,0.913 -0.755,0.913 -0.485,0 -0.97,-0.429 -1.184,-0.869 v -3.99 H -2.751 V 0 c 0,0.586 -0.237,0.913 -0.766,0.913 -0.485,0 -0.947,-0.429 -1.184,-0.869 v -3.99 h -0.801 v 5.445 h 0.801 V 0.721 c 0.225,0.406 0.834,0.913 1.488,0.913 0.699,0 1.128,-0.395 1.229,-0.969 0.27,0.496 0.879,0.969 1.533,0.969 0.8,0 1.263,-0.439 1.263,-1.421 V -3.946 H 0 Z"
             style="fill:#373382;fill-opacity:1;fill-rule:nonzero;stroke:none"
             id="path164" />
        </g>
        <g
           id="g166"
           transform="translate(381.208,342.206)">
          <path
             d="m 0,0 c -0.248,0.462 -0.699,0.699 -1.173,0.699 -0.676,0 -1.082,-0.53 -1.082,-1.206 0,-0.677 0.406,-1.218 1.082,-1.218 0.474,0 0.925,0.236 1.173,0.688 z m 0,-1.59 c -0.349,-0.496 -0.879,-0.721 -1.432,-0.721 -0.879,0 -1.645,0.676 -1.645,1.815 0,1.138 0.755,1.792 1.645,1.792 0.553,0 1.094,-0.213 1.432,-0.699 v 0.947 c 0,0.745 -0.406,1.162 -1.116,1.162 -0.507,0 -0.947,-0.192 -1.364,-0.666 l -0.361,0.576 c 0.519,0.54 1.161,0.788 1.849,0.788 1.082,0 1.804,-0.529 1.804,-1.77 v -3.81 H 0 Z"
             style="fill:#373382;fill-opacity:1;fill-rule:nonzero;stroke:none"
             id="path168" />
        </g>
        <g
           id="g170"
           transform="translate(384.7843,341.1235)">
          <path
             d="M 0,0 V 3.641 H -0.721 V 4.352 H 0 V 5.84 H 0.812 V 4.352 H 1.736 V 3.641 H 0.812 V 0.147 c 0,-0.417 0.124,-0.654 0.439,-0.654 0.203,0 0.372,0.09 0.473,0.215 l 0.248,-0.61 C 1.781,-1.094 1.51,-1.228 1.094,-1.228 0.349,-1.228 0,-0.812 0,0"
             style="fill:#373382;fill-opacity:1;fill-rule:nonzero;stroke:none"
             id="path172" />
        </g>
        <path
           d="m 388.72,345.475 h 0.801 v -5.445 h -0.801 z m -0.158,1.466 c 0,0.304 0.259,0.552 0.553,0.552 0.304,0 0.552,-0.248 0.552,-0.552 0,-0.305 -0.248,-0.553 -0.552,-0.553 -0.294,0 -0.553,0.248 -0.553,0.553"
           style="fill:#373382;fill-opacity:1;fill-rule:nonzero;stroke:none"
           id="path174" />
        <g
           id="g176"
           transform="translate(395.4506,342.7584)">
          <path
             d="m 0,0 c 0,1.093 -0.417,2.13 -1.375,2.13 -0.936,0 -1.364,-1.037 -1.364,-2.13 0,-1.105 0.428,-2.142 1.364,-2.142 C -0.417,-2.142 0,-1.105 0,0 m -3.585,0 c 0,1.533 0.767,2.852 2.21,2.852 1.466,0 2.221,-1.319 2.221,-2.852 0,-1.534 -0.755,-2.863 -2.221,-2.863 -1.443,0 -2.21,1.329 -2.21,2.863"
             style="fill:#373382;fill-opacity:1;fill-rule:nonzero;stroke:none"
             id="path178" />
        </g>
        <g
           id="g180"
           transform="translate(401.5857,343.9082)">
          <path
             d="m 0,0 c 0,0.721 -0.326,0.981 -0.868,0.981 -0.529,0 -1.025,-0.418 -1.274,-0.869 v -3.99 h -0.8 v 5.445 h 0.8 V 0.789 c 0.316,0.474 0.925,0.913 1.579,0.913 0.924,0 1.375,-0.496 1.375,-1.477 V -3.878 H 0 Z"
             style="fill:#373382;fill-opacity:1;fill-rule:nonzero;stroke:none"
             id="path182" />
        </g>
        <g
           id="g184"
           transform="translate(346.8346,335.24)">
          <path
             d="M 0,0 H -1.296 V -2.931 H 0 c 0.778,0 1.241,0.609 1.241,1.465 C 1.241,-0.609 0.778,0 0,0 M -2.198,0.789 H 0.09 c 1.376,0 2.075,-1.037 2.075,-2.255 0,-1.217 -0.71,-2.254 -2.075,-2.254 h -1.386 v -3.01 h -0.902 z"
             style="fill:#373382;fill-opacity:1;fill-rule:nonzero;stroke:none"
             id="path186" />
        </g>
        <g
           id="g188"
           transform="translate(353.793,330.6858)">
          <path
             d="m 0,0 c -0.248,0.462 -0.699,0.699 -1.173,0.699 -0.676,0 -1.082,-0.53 -1.082,-1.206 0,-0.677 0.406,-1.218 1.082,-1.218 0.474,0 0.925,0.236 1.173,0.688 z m 0,-1.59 c -0.349,-0.496 -0.88,-0.721 -1.432,-0.721 -0.879,0 -1.645,0.676 -1.645,1.815 0,1.138 0.755,1.792 1.645,1.792 0.552,0 1.094,-0.213 1.432,-0.699 v 0.947 c 0,0.745 -0.406,1.162 -1.116,1.162 -0.507,0 -0.947,-0.192 -1.364,-0.666 l -0.361,0.576 c 0.519,0.54 1.161,0.788 1.849,0.788 1.082,0 1.804,-0.529 1.804,-1.77 v -3.81 H 0 Z"
             style="fill:#373382;fill-opacity:1;fill-rule:nonzero;stroke:none"
             id="path190" />
        </g>
        <g
           id="g192"
           transform="translate(357.2112,333.955)">
          <path
             d="m 0,0 h 0.8 v -0.868 c 0.35,0.575 0.879,0.981 1.545,0.981 v -0.834 c -0.09,0.022 -0.181,0.033 -0.271,0.033 -0.496,0 -1.048,-0.44 -1.274,-0.89 V -5.445 H 0 Z"
             style="fill:#373382;fill-opacity:1;fill-rule:nonzero;stroke:none"
             id="path194" />
        </g>
        <g
           id="g196"
           transform="translate(361.7785,329.6033)">
          <path
             d="M 0,0 V 3.641 H -0.722 V 4.352 H 0 V 5.84 H 0.811 V 4.352 H 1.735 V 3.641 H 0.811 V 0.147 c 0,-0.417 0.125,-0.654 0.44,-0.654 0.203,0 0.372,0.09 0.473,0.215 l 0.248,-0.61 C 1.781,-1.094 1.51,-1.228 1.093,-1.228 0.349,-1.228 0,-0.812 0,0"
             style="fill:#373382;fill-opacity:1;fill-rule:nonzero;stroke:none"
             id="path198" />
        </g>
        <g
           id="g200"
           transform="translate(368.6566,332.388)">
          <path
             d="m 0,0 c 0,0.721 -0.327,0.981 -0.868,0.981 -0.53,0 -1.026,-0.418 -1.274,-0.869 v -3.99 h -0.801 v 5.445 h 0.801 V 0.789 c 0.315,0.474 0.924,0.913 1.578,0.913 0.924,0 1.376,-0.496 1.376,-1.477 V -3.878 H 0 Z"
             style="fill:#373382;fill-opacity:1;fill-rule:nonzero;stroke:none"
             id="path202" />
        </g>
        <g
           id="g204"
           transform="translate(372.6493,331.5646)">
          <path
             d="M 0,0 H 2.729 C 2.717,0.834 2.356,1.849 1.365,1.849 0.406,1.849 0.023,0.801 0,0 m 1.376,2.526 c 1.432,0 2.152,-1.285 2.152,-2.875 V -0.597 H 0 c 0.034,-1.094 0.598,-1.917 1.567,-1.917 0.474,0 0.959,0.237 1.297,0.666 L 3.292,-2.322 C 2.852,-2.863 2.232,-3.189 1.5,-3.189 c -1.455,0 -2.334,1.194 -2.334,2.863 0,1.578 0.834,2.852 2.21,2.852"
             style="fill:#373382;fill-opacity:1;fill-rule:nonzero;stroke:none"
             id="path206" />
        </g>
        <g
           id="g208"
           transform="translate(378.4912,333.955)">
          <path
             d="M 0,0 H 0.801 V -0.868 C 1.15,-0.293 1.68,0.113 2.345,0.113 v -0.834 c -0.09,0.022 -0.181,0.033 -0.271,0.033 -0.495,0 -1.048,-0.44 -1.273,-0.89 V -5.445 H 0 Z"
             style="fill:#373382;fill-opacity:1;fill-rule:nonzero;stroke:none"
             id="path210" />
        </g>
        <g
           id="g212"
           transform="translate(382.8672,329.7162)">
          <path
             d="m 0,0 c 0.315,-0.383 0.834,-0.688 1.42,-0.688 0.631,0 1.049,0.338 1.049,0.857 0,0.586 -0.542,0.823 -1.139,1.071 -0.744,0.293 -1.578,0.62 -1.578,1.669 0,0.811 0.653,1.465 1.735,1.465 0.723,0 1.274,-0.281 1.658,-0.699 L 2.761,3.122 C 2.491,3.483 2.029,3.72 1.499,3.72 0.902,3.72 0.53,3.393 0.53,2.953 0.53,2.435 1.037,2.21 1.612,1.973 2.367,1.668 3.246,1.33 3.246,0.214 c 0,-0.902 -0.698,-1.555 -1.815,-1.555 -0.766,0 -1.387,0.247 -1.837,0.766 z"
             style="fill:#373382;fill-opacity:1;fill-rule:nonzero;stroke:none"
             id="path214" />
        </g>
      </g>
    </g>
  </g>
</svg>
